<svg width="370" height="48" viewBox="0 0 370 48" fill="none" xmlns="http://www.w3.org/2000/svg">
<g clip-path="url(#clip0_7_3)">
<path d="M363.239 2.65942C362.882 1.08682 361.527 0.0540089 360.213 0.352562C358.899 0.651115 358.123 2.16798 358.481 3.74058C358.838 5.31317 360.193 6.34599 361.507 6.04743C362.821 5.74888 363.597 4.23202 363.239 2.65942Z" fill="#FEFEFE"/>
<path d="M305.406 2.65942C305.048 1.08682 303.693 0.0540089 302.379 0.352562C301.065 0.651115 300.29 2.16798 300.647 3.74058C301.004 5.31317 302.359 6.34599 303.673 6.04743C304.987 5.74888 305.763 4.23202 305.406 2.65942Z" fill="#FEFEFE"/>
<path d="M42.18 31.38C41.07 33.9 38.28 40.84 35.44 38.67C35.1627 38.4576 34.974 38.155 34.91 37.82C34.39 35.2333 34.5067 32.6266 35.26 30C36.4933 25.74 38.2467 20.7166 40.52 14.93C40.633 14.6509 40.7772 14.3859 40.95 14.14L42.08 12.55C42.1216 12.4951 42.1406 12.4263 42.1332 12.3579C42.1257 12.2894 42.0924 12.2264 42.0401 12.1817C41.9877 12.1369 41.9202 12.1139 41.8514 12.1173C41.7826 12.1207 41.7177 12.1503 41.67 12.2L27.85 26.02C27.702 26.1679 27.6108 26.3633 27.5925 26.5718C27.5742 26.7803 27.63 26.9885 27.75 27.16C29.1767 29.2 28.8067 31.1166 26.64 32.91C23.3333 35.6566 19.33 37.7533 14.63 39.2C14.1767 39.34 13.6267 39.56 12.98 39.86C12.3 40.18 11.7233 40.31 11.25 40.25C10.9414 40.2088 10.662 40.0722 10.4416 39.8546C10.2211 39.637 10.0679 39.3466 9.99812 39.0142C9.92837 38.6819 9.94471 38.32 10.0454 37.9671C10.1461 37.6141 10.3274 37.2834 10.57 37.01C13.49 33.73 16.99 31.84 20.38 29.12C20.6443 28.9085 20.9463 28.749 21.27 28.65L22.36 28.33C22.4197 28.3129 22.4731 28.2789 22.5137 28.232C22.5544 28.1852 22.5805 28.1275 22.589 28.066C22.5975 28.0046 22.5879 27.942 22.5615 27.8859C22.535 27.8298 22.4928 27.7825 22.44 27.75C22.1733 27.5833 21.3267 27.3033 19.9 26.91C15.7933 25.7766 12.5833 24.5 10.27 23.08C3.47001 18.89 8.68001 12.76 13.48 10.1C15.79 8.81997 18.5 8.85997 21.09 7.86997C22.44 7.34997 23.82 7.43998 25.36 7.60998C25.7616 7.6487 26.1627 7.55369 26.5 7.33998C27.4133 6.75331 28.5267 6.48664 29.84 6.53998C30.0139 6.54652 30.1845 6.589 30.3411 6.66472C30.4977 6.74045 30.6369 6.84779 30.75 6.97997C31.35 7.66664 31.99 8.12664 32.67 8.35998C32.8474 8.41763 32.9975 8.53855 33.0915 8.69968C33.1856 8.86081 33.2171 9.05091 33.18 9.23376C33.1429 9.41661 33.0399 9.57943 32.8905 9.69123C32.7412 9.80302 32.5559 9.85596 32.37 9.83998L27.08 9.39998C26.8219 9.37347 26.5584 9.39037 26.3 9.44998C20.37 10.86 12.72 11.78 9.77001 17.57C9.70387 17.7022 9.67539 17.8498 9.68775 17.9964C9.70011 18.1429 9.75282 18.2826 9.84001 18.4C10.9533 19.9266 12.3567 20.8466 14.05 21.16C15.71 21.4666 16.6833 21.7066 16.97 21.88C17.0833 21.9533 19.7567 22.8366 24.99 24.53C25.1816 24.5928 25.3875 24.5999 25.5839 24.5504C25.7803 24.5008 25.9592 24.3967 26.1 24.25C27.5733 22.7233 29.1033 21.6866 30.69 21.14C30.8868 21.0711 31.066 20.9591 31.2147 20.8121C31.3634 20.6652 31.4779 20.4868 31.55 20.29C31.8833 19.37 32.2067 18.7833 32.52 18.53C34.6067 16.83 36.3367 15.1766 37.71 13.57C38.6633 12.4566 39.67 11.4 40.73 10.4C41.86 9.32998 44.34 7.43997 44.85 6.04997C45.13 5.29664 45.4833 4.88998 45.91 4.82998C46.2507 4.78629 46.5963 4.83747 46.9095 4.97805C47.2228 5.11863 47.492 5.34329 47.6883 5.62796C47.8846 5.91263 48.0005 6.24657 48.0237 6.59397C48.047 6.94137 47.9765 7.28913 47.82 7.59997C45.4867 12.18 43.3667 16.9466 41.46 21.9C41.4233 21.992 41.4118 22.0922 41.4264 22.1901C41.4411 22.2881 41.4815 22.3805 41.5435 22.4577C41.6056 22.535 41.687 22.5944 41.7795 22.63C41.872 22.6655 41.9722 22.6759 42.07 22.66L51.87 21.11C51.9708 21.095 52.0659 21.055 52.1464 20.9938C52.2268 20.9326 52.2901 20.8521 52.33 20.76C53.01 19.2933 53.3633 18.3133 53.39 17.82C53.3934 17.7827 53.3851 17.7453 53.3662 17.713C53.3474 17.6807 53.3189 17.6551 53.2848 17.6397C53.2507 17.6243 53.2127 17.6199 53.176 17.6271C53.1393 17.6343 53.1057 17.6528 53.08 17.68L50.86 19.9C50.8247 19.9357 50.7826 19.964 50.7363 19.9833C50.6899 20.0026 50.6402 20.0126 50.59 20.0126C50.5398 20.0126 50.4901 20.0026 50.4437 19.9833C50.3974 19.964 50.3553 19.9357 50.32 19.9L50.13 19.71C50.0963 19.6764 50.075 19.6324 50.0696 19.5852C50.0641 19.538 50.0748 19.4903 50.1 19.45C51.7333 16.83 54.0633 13.05 57.09 8.10998C57.2833 7.80331 57.77 7.45998 58.55 7.07998C58.6245 7.04365 58.7057 7.02313 58.7883 7.01977C58.8709 7.01641 58.9531 7.03027 59.0295 7.06046C59.1059 7.09065 59.1749 7.13648 59.2318 7.19498C59.2887 7.25348 59.3324 7.32333 59.36 7.39998L60.15 9.53998C60.1888 9.64977 60.1888 9.76667 60.15 9.86997L55.67 22.05C55.5861 22.2691 55.5825 22.5101 55.66 22.73C55.8934 23.4633 56.48 24.2333 57.42 25.04C57.5298 25.1341 57.6621 25.1983 57.804 25.2264C57.9459 25.2544 58.0927 25.2453 58.23 25.2C60.76 24.35 62.07 24.21 63.97 21.85C66.6367 18.53 69.5233 15.5166 72.63 12.81C72.8156 12.6486 73.0337 12.529 73.2695 12.4591C73.5054 12.3891 73.7534 12.3706 73.997 12.4047C74.2406 12.4389 74.474 12.5248 74.6815 12.6568C74.8891 12.7888 75.0659 12.9638 75.2 13.17C76.76 15.58 76.18 18.07 75.46 20.59C75.4302 20.6956 75.424 20.8066 75.4418 20.9149C75.4596 21.0232 75.5009 21.1263 75.5629 21.2169C75.6249 21.3075 75.706 21.3834 75.8006 21.4393C75.8951 21.4951 76.0007 21.5295 76.11 21.54L78.6 21.8C78.7628 21.8162 78.9185 21.8746 79.0518 21.9694C79.1851 22.0643 79.2913 22.1922 79.36 22.3407C79.4287 22.4892 79.4574 22.653 79.4434 22.816C79.4294 22.9789 79.3731 23.1354 79.28 23.27C78.3267 24.67 77.0033 25.4266 75.31 25.54C75.1146 25.5545 74.9303 25.6361 74.7881 25.771C74.646 25.9058 74.5548 26.0856 74.53 26.28C74.1967 28.9266 73.4 32.24 72.14 36.22C71.9733 36.7533 71.59 37.3533 70.99 38.02C70.7983 38.2337 70.5417 38.3785 70.2597 38.4321C69.9777 38.4857 69.6858 38.4453 69.4291 38.3169C69.1723 38.1885 68.9648 37.9793 68.8385 37.7215C68.7122 37.4637 68.6741 37.1716 68.73 36.89L70.66 27.16C70.6694 27.1098 70.6662 27.058 70.6508 27.0093C70.6353 26.9606 70.6081 26.9165 70.5715 26.8808C70.5349 26.8452 70.49 26.8192 70.4409 26.8051C70.3918 26.791 70.34 26.7892 70.29 26.8L64.56 28.06C64.2548 28.1248 63.9808 28.2864 63.78 28.52L58.54 34.64C58.326 34.8879 58.0457 35.0695 57.732 35.1636C57.4183 35.2576 57.0843 35.2601 56.7692 35.1709C56.4541 35.0816 56.171 34.9042 55.9533 34.6596C55.7356 34.415 55.5922 34.1133 55.54 33.79L54.63 28.02C54.6038 27.8396 54.5176 27.6732 54.3852 27.5479C54.2527 27.4226 54.0819 27.3456 53.9003 27.3295C53.7188 27.3133 53.537 27.3588 53.3845 27.4587C53.232 27.5586 53.1177 27.707 53.06 27.88C52.0667 30.82 50.7634 33.8233 49.15 36.89C48.91 37.3433 48.3867 37.4933 47.58 37.34C47.3873 37.3039 47.2047 37.2263 47.045 37.1126C46.8853 36.9989 46.7523 36.8517 46.6552 36.6813C46.5581 36.511 46.4993 36.3215 46.4829 36.1262C46.4665 35.9308 46.4928 35.7342 46.56 35.55L49.99 26.24C50.0079 26.1895 50.0132 26.1354 50.0055 26.0824C49.9978 26.0294 49.9773 25.9791 49.9458 25.9358C49.9143 25.8924 49.8727 25.8574 49.8247 25.8338C49.7766 25.8101 49.7236 25.7985 49.67 25.8C46.07 25.8933 42.7733 26.9666 39.78 29.02C39.5459 29.1828 39.3678 29.4133 39.27 29.68L38.01 33.09C37.9751 33.1886 37.9726 33.2957 38.003 33.3958C38.0333 33.4959 38.0949 33.5837 38.1787 33.6463C38.2625 33.7089 38.3642 33.743 38.4688 33.7436C38.5733 33.7443 38.6754 33.7115 38.76 33.65L41.97 31.21C41.9949 31.192 42.0251 31.1827 42.0558 31.1836C42.0865 31.1844 42.1161 31.1954 42.14 31.2147C42.1639 31.2341 42.1807 31.2607 42.188 31.2906C42.1952 31.3204 42.1924 31.3519 42.18 31.38Z" fill="#FEFEFE"/>
<path d="M196.65 24.34C195.11 26.32 188.83 32.77 185.56 32.33C185.396 32.308 185.237 32.2534 185.093 32.1693C184.948 32.0853 184.822 31.9733 184.72 31.84C182.39 28.69 182.17 23.88 182.46 20.27C182.462 20.2111 182.444 20.1533 182.409 20.106C182.374 20.0587 182.324 20.0247 182.267 20.0096C182.21 19.9945 182.15 19.9992 182.096 20.0229C182.042 20.0466 181.997 20.0878 181.97 20.14C179.983 24.22 177.527 28.2066 174.6 32.1C173.9 33.0266 173.187 33.5533 172.46 33.68C171.917 33.7781 171.353 33.6556 170.881 33.337C170.408 33.0184 170.062 32.5269 169.91 31.96C169.05 28.76 168.797 25.4366 169.15 21.99C169.93 14.3566 170.343 10.4233 170.39 10.19C170.438 9.93984 170.542 9.70389 170.694 9.50015C170.847 9.29642 171.044 9.13031 171.271 9.01452C171.498 8.89872 171.748 8.83631 172.003 8.83206C172.257 8.82781 172.51 8.88183 172.74 8.98998L172.92 9.07998C173.384 9.31152 173.765 9.67988 174.014 10.1357C174.262 10.5915 174.365 11.1129 174.31 11.63L172.83 25.81C172.821 25.9205 172.849 26.0308 172.911 26.1229C172.973 26.2151 173.064 26.2836 173.17 26.3173C173.275 26.3509 173.389 26.3478 173.493 26.3083C173.596 26.2688 173.684 26.1954 173.74 26.1L184.89 6.78998C184.912 6.75344 184.942 6.72246 184.978 6.69942C185.014 6.67638 185.055 6.66189 185.098 6.65706C185.14 6.65224 185.183 6.6572 185.224 6.67157C185.264 6.68594 185.3 6.70935 185.33 6.73998C185.69 7.11331 186.347 7.38331 187.3 7.54998C187.483 7.58127 187.658 7.64877 187.815 7.74851C187.972 7.84825 188.108 7.97826 188.214 8.13093C188.32 8.2836 188.395 8.45587 188.434 8.6377C188.472 8.81954 188.475 9.00728 188.44 9.18998C187.34 15.0166 186.833 20.5566 186.92 25.81C186.922 25.9585 186.966 26.1034 187.047 26.2281C187.128 26.3527 187.242 26.4521 187.377 26.5147C187.511 26.5774 187.661 26.6008 187.808 26.5822C187.956 26.5637 188.095 26.504 188.21 26.41C192.197 23.1366 195.67 19.46 198.63 15.38C198.747 15.2214 198.894 15.0877 199.062 14.9864C199.231 14.8852 199.417 14.8184 199.61 14.79C201.21 14.55 202.327 15.3233 202.96 17.11C203.071 17.4311 203.099 17.7721 203.04 18.1C201.9 24.27 200.88 29 201.53 34.58C201.677 35.8533 200.96 36.5266 199.38 36.6C199.205 36.6096 199.031 36.5752 198.874 36.5C198.716 36.4248 198.581 36.3113 198.48 36.17C196.64 33.6633 195.99 31.02 196.53 28.24C196.97 25.9666 197.18 24.7166 197.16 24.49C197.153 24.4321 197.13 24.3771 197.093 24.3321C197.055 24.2872 197.006 24.2545 196.95 24.2382C196.895 24.222 196.837 24.223 196.783 24.2412C196.73 24.2593 196.683 24.2938 196.65 24.34Z" fill="#FEFEFE"/>
<path d="M253.67 18.47L254.26 12.76C254.268 12.685 254.255 12.6093 254.223 12.5411C254.191 12.473 254.14 12.4151 254.077 12.3737C254.014 12.3324 253.941 12.3092 253.866 12.3068C253.79 12.3044 253.716 12.3228 253.65 12.36C247.27 15.9466 242.827 20.9866 240.32 27.48C238.42 32.38 242.99 34.32 246.81 33.07C250.403 31.8966 252.533 31.0933 253.2 30.66C255.39 29.23 257.16 29.44 258.86 27.13C258.891 27.085 258.935 27.0505 258.986 27.0311C259.037 27.0117 259.093 27.0083 259.146 27.0213C259.199 27.0343 259.247 27.0631 259.284 27.104C259.32 27.1448 259.343 27.1957 259.35 27.25L259.52 28.29C259.526 28.3297 259.522 28.3706 259.508 28.409C259.494 28.4474 259.471 28.4821 259.44 28.51C258.427 29.3833 257.47 30.4966 256.57 31.85C256.384 32.1286 256.159 32.381 255.9 32.6C250.03 37.56 241.48 40.24 235.9 33.07C235.626 32.7181 235.463 32.2936 235.43 31.85C235.183 28.8433 235.29 26.8 235.75 25.72C239.04 17.96 246.28 9.44998 254.83 6.88998C255.016 6.83366 255.214 6.82151 255.406 6.85448C255.599 6.88744 255.782 6.96463 255.94 7.07998C257.113 7.93998 257.853 8.85998 258.16 9.83998C258.66 11.4266 258.53 14.0133 257.77 17.6C257.688 17.983 257.491 18.3322 257.205 18.6017C256.92 18.8712 256.559 19.0484 256.17 19.11L254.6 19.36C254.477 19.3792 254.351 19.3698 254.232 19.3325C254.114 19.2952 254.005 19.231 253.915 19.1449C253.825 19.0588 253.756 18.9531 253.714 18.8361C253.671 18.719 253.656 18.5937 253.67 18.47Z" fill="#FEFEFE"/>
<path d="M359.09 23.23C359.136 23.1422 359.147 23.0395 359.119 22.9429C359.091 22.8462 359.027 22.763 358.94 22.71L358.92 22.7C358.868 22.6708 358.806 22.6628 358.747 22.6775C358.688 22.6923 358.635 22.7289 358.6 22.78C356.907 25.3133 354.78 28.04 352.22 30.96C349.93 33.57 345.8 36.63 342.77 33.37C340.53 30.95 342.32 25 343.46 21.33C343.483 21.2519 343.484 21.1694 343.466 21.0903C343.447 21.0113 343.408 20.9385 343.352 20.8791C343.297 20.8197 343.227 20.7756 343.149 20.7512C343.072 20.7268 342.989 20.723 342.91 20.74C340.937 21.16 339.113 21.9733 337.44 23.18C337.38 23.22 333.643 26.07 326.23 31.73C324.59 32.9767 322.837 33.6067 320.97 33.62C320.633 33.621 320.299 33.5625 319.988 33.4479C319.676 33.3334 319.393 33.1651 319.156 32.9529C318.919 32.7407 318.731 32.4888 318.605 32.2119C318.479 31.935 318.416 31.6386 318.42 31.34C318.427 30.74 318.763 30.0133 319.43 29.16C321.77 26.1733 323.963 23.1967 326.01 20.23C326.079 20.1295 326.12 20.0121 326.127 19.8904C326.134 19.7686 326.108 19.6472 326.052 19.5391C325.995 19.4311 325.91 19.3405 325.806 19.2772C325.702 19.214 325.582 19.1803 325.46 19.18C319.58 19.2 313.907 20.1667 308.44 22.08C308.204 22.1652 307.949 22.1859 307.7 22.14L306.46 21.89C306.386 21.8755 306.31 21.8785 306.238 21.8988C306.166 21.919 306.099 21.9558 306.044 22.0064C305.989 22.057 305.946 22.1198 305.919 22.1899C305.892 22.26 305.882 22.3354 305.89 22.41C306.33 27.13 306.49 32.66 308.05 35.23C308.211 35.4955 308.294 35.7981 308.292 36.1088C308.291 36.4196 308.204 36.7279 308.04 37.0041C307.876 37.2804 307.641 37.5152 307.358 37.6862C307.074 37.8571 306.751 37.9583 306.42 37.98C305.593 38.0333 304.76 37.67 303.92 36.89C303.672 36.6614 303.491 36.3671 303.4 36.04C302.133 31.7533 301.437 26.9467 301.31 21.62C301.304 21.2867 301.188 20.9647 300.98 20.7042C300.772 20.4437 300.484 20.2594 300.16 20.18L300.11 20.17C299.964 20.1338 299.811 20.1312 299.663 20.1624C299.516 20.1935 299.377 20.2577 299.258 20.35C299.138 20.4424 299.042 20.5605 298.974 20.6956C298.907 20.8307 298.872 20.9792 298.87 21.13C298.83 23.2767 298.67 25.2133 298.39 26.94C297.777 30.7133 295.943 33.53 292.89 35.39C291.983 35.9433 290.653 35.94 288.9 35.38C288.593 35.2772 288.338 35.0583 288.19 34.77C286.78 31.99 288.64 30.09 290.11 28.19C290.15 28.1414 290.205 28.1069 290.266 28.0913C290.328 28.0757 290.392 28.0798 290.451 28.1031C290.51 28.1263 290.56 28.1676 290.594 28.2209C290.628 28.2742 290.644 28.3369 290.64 28.4L290.37 30.97C290.356 31.1029 290.385 31.2366 290.453 31.3519C290.52 31.4673 290.622 31.5582 290.745 31.6116C290.867 31.665 291.003 31.6781 291.134 31.6491C291.264 31.6201 291.382 31.5503 291.47 31.45C294.71 27.8 294.61 21.17 293.28 16.92C293.226 16.7457 293.126 16.5891 292.991 16.4665C292.856 16.344 292.69 16.2599 292.511 16.2231C292.333 16.1864 292.147 16.1982 291.975 16.2575C291.802 16.3167 291.648 16.4212 291.53 16.56C286.42 22.58 284.64 31.6 285.51 39.06C285.548 39.3742 285.519 39.693 285.424 39.9953C285.33 40.2975 285.172 40.5764 284.961 40.8136C284.751 41.0507 284.492 41.2408 284.202 41.3712C283.912 41.5015 283.598 41.5693 283.28 41.57H282.85C282.574 41.5693 282.302 41.5102 282.051 41.3966C281.8 41.283 281.577 41.1176 281.395 40.9114C281.213 40.7051 281.078 40.4628 280.998 40.2004C280.918 39.9381 280.894 39.6618 280.93 39.39C281.27 36.6567 281.313 33.52 281.06 29.98C280.933 28.18 280.223 26.75 278.93 25.69C278.877 25.6455 278.813 25.6172 278.745 25.6082C278.676 25.5991 278.607 25.6097 278.543 25.6388C278.48 25.6679 278.425 25.7143 278.386 25.7728C278.347 25.8313 278.324 25.8996 278.32 25.97C278.207 28.8433 277.577 31.3933 276.43 33.62C276.281 33.9123 276.037 34.1457 275.739 34.2826C275.44 34.4194 275.105 34.4517 274.786 34.3743C274.467 34.2969 274.183 34.1142 273.981 33.8558C273.778 33.5973 273.669 33.2783 273.67 32.95V26.32C273.67 26.1772 273.636 26.0364 273.572 25.9088C273.508 25.7813 273.414 25.6704 273.3 25.585C273.185 25.4996 273.053 25.4421 272.912 25.4169C272.772 25.3917 272.627 25.3996 272.49 25.44C269.657 26.2467 267.507 28.0033 266.04 30.71C265.775 31.1989 265.381 31.5909 264.934 31.8119C264.486 32.033 264.015 32.0678 263.61 31.91C263.023 31.6767 262.39 31.26 261.71 30.66C261.555 30.5264 261.439 30.3543 261.372 30.1611C261.305 29.9679 261.291 29.7606 261.33 29.56L262.17 25.34C262.192 25.2355 262.236 25.1365 262.297 25.0489C262.359 24.9612 262.438 24.8868 262.53 24.83L265.71 22.92C266.046 22.7157 266.333 22.4428 266.55 22.12C268.983 18.54 270.76 15.9567 271.88 14.37C273.85 11.59 276.35 12.89 277.12 15.65C277.453 16.83 277.593 18.2067 277.54 19.78C277.534 19.9553 277.57 20.1298 277.647 20.2883C277.724 20.4469 277.838 20.5847 277.98 20.69C278.77 21.27 279.88 21.33 280.61 21.87C281.303 22.3767 281.913 22.9267 282.44 23.52C282.495 23.5849 282.566 23.6337 282.646 23.6613C282.726 23.689 282.813 23.6943 282.896 23.6769C282.979 23.6595 283.056 23.6199 283.118 23.5623C283.18 23.5048 283.226 23.4314 283.25 23.35C284.143 20.5167 285.317 17.98 286.77 15.74C289.5 11.51 293.77 9.43 296.77 14.75C297.377 15.83 297.743 16.4667 297.87 16.66C297.948 16.7828 298.071 16.8709 298.212 16.9063C298.354 16.9416 298.503 16.9215 298.63 16.85C301.243 15.4033 303.23 15.8333 304.59 18.14C304.63 18.2078 304.684 18.2663 304.749 18.3118C304.813 18.3572 304.887 18.3885 304.964 18.4036C305.042 18.4187 305.121 18.4173 305.198 18.3994C305.275 18.3816 305.347 18.3477 305.41 18.3C306.223 17.6733 307.963 17.0433 310.63 16.41C316.48 15.03 324.13 13.43 329.66 15.71C329.947 15.8341 330.193 16.035 330.37 16.29C331.11 17.3633 331.353 18.59 331.1 19.97C331.067 20.1291 331.013 20.2775 330.94 20.41L329.5 22.9C329.465 22.9669 329.454 23.0435 329.467 23.1177C329.481 23.1919 329.518 23.2596 329.574 23.31C329.631 23.3604 329.702 23.3907 329.777 23.3961C329.852 23.4015 329.927 23.3818 329.99 23.34C334.98 19.82 338.42 16.56 344.58 16.57C345.229 16.5727 345.857 16.748 346.387 17.0745C346.918 17.4011 347.329 17.865 347.57 18.41C347.803 18.9433 347.92 20.0767 347.92 21.81C347.92 22.0944 347.869 22.3724 347.77 22.63C346.963 24.7967 346.53 27.2033 346.47 29.85C346.468 29.9216 346.486 29.9922 346.522 30.0535C346.559 30.1149 346.613 30.1646 346.678 30.197C346.742 30.2294 346.815 30.243 346.888 30.2365C346.961 30.23 347.031 30.2035 347.09 30.16C348.93 28.7267 350.81 26.9967 352.73 24.97C355.463 22.0767 358.323 19.5933 361.31 17.52C361.541 17.3588 361.81 17.2591 362.09 17.2304C362.371 17.2018 362.654 17.245 362.913 17.3561C363.172 17.4671 363.399 17.6424 363.571 17.8652C363.744 18.0881 363.857 18.3513 363.9 18.63C364.2 20.5433 363.97 22.2933 363.21 23.88C361.31 27.85 360.37 32.09 359.71 36.17C359.643 36.5899 359.445 36.9779 359.144 37.2782C358.843 37.5785 358.455 37.7755 358.035 37.8411C357.615 37.9067 357.185 37.8374 356.806 37.6431C356.428 37.4488 356.121 37.1397 355.93 36.76C354.44 33.85 357.51 26.21 359.09 23.23Z" fill="#FEFEFE"/>
<path d="M150.29 15.6C150.55 16.4733 150.67 17.13 150.65 17.57C150.397 24.8567 146.98 29.8433 140.4 32.53C140.101 32.6496 139.792 32.7335 139.48 32.78C134.153 33.56 129.313 32.5933 124.96 29.88C124.709 29.7212 124.485 29.5182 124.3 29.28L121.02 24.95C120.95 24.8584 120.861 24.7837 120.758 24.7314C120.655 24.679 120.542 24.6503 120.427 24.6474C120.312 24.6446 120.198 24.6676 120.093 24.7147C119.988 24.7619 119.894 24.832 119.82 24.92C118.193 26.7933 117.033 29.1433 116.34 31.97C116.28 32.2351 116.183 32.4879 116.05 32.72L114.47 35.68C114.378 35.8436 114.244 35.9815 114.08 36.08C113.327 36.5467 112.433 36.4433 111.4 35.77C111.146 35.5938 110.951 35.3464 110.84 35.06C109.967 32.72 109.6 30.52 109.74 28.46C109.743 28.3983 109.728 28.3371 109.695 28.2847C109.662 28.2323 109.614 28.1912 109.557 28.1672C109.5 28.1431 109.438 28.1372 109.377 28.1502C109.317 28.1632 109.262 28.1946 109.22 28.24C106.69 30.95 103.34 34.95 100.07 35.6C97.0833 36.1867 95.0833 34.8267 94.07 31.52C94.045 31.4378 93.9997 31.3632 93.9382 31.3032C93.8767 31.2432 93.801 31.1998 93.7182 31.1768C93.6355 31.1539 93.5482 31.1522 93.4646 31.172C93.381 31.1918 93.3037 31.2324 93.24 31.29C91.4867 32.8767 89.6167 34.2467 87.63 35.4C86.3833 36.12 85.2333 36.0967 84.18 35.33C83.8717 35.0991 83.664 34.7552 83.6 34.37C82.7067 28.83 83.7367 23.8167 86.69 19.33C86.8127 19.1417 86.9789 18.9857 87.1745 18.8751C87.3702 18.7646 87.5896 18.7028 87.8142 18.695C88.0388 18.6871 88.262 18.7334 88.4649 18.8301C88.6678 18.9267 88.8445 19.0707 88.98 19.25L89.37 19.77C89.6427 20.1302 89.8089 20.5594 89.8496 21.0085C89.8902 21.4576 89.8038 21.9086 89.6 22.31C88.46 24.5633 87.7933 27.01 87.6 29.65C87.5918 29.7423 87.6095 29.8351 87.651 29.918C87.6925 30.0009 87.7562 30.0706 87.8351 30.1194C87.9139 30.1681 88.0048 30.194 88.0975 30.1941C88.1902 30.1942 88.2811 30.1686 88.36 30.12C91.36 28.3467 93.2067 26.2 93.9 23.68C93.9653 23.4377 94.0856 23.2138 94.2517 23.0255C94.4178 22.8372 94.6252 22.6896 94.858 22.594C95.0908 22.4984 95.3428 22.4573 95.5945 22.4739C95.8462 22.4906 96.091 22.5645 96.31 22.69L96.76 22.95C97.076 23.1324 97.3385 23.3948 97.521 23.7107C97.7036 24.0267 97.7998 24.3851 97.8 24.75V29.5C97.8001 29.7617 97.8716 30.0185 98.0067 30.2427C98.1418 30.4668 98.3354 30.65 98.5668 30.7723C98.7982 30.8947 99.0585 30.9517 99.3198 30.9372C99.5812 30.9227 99.8336 30.8372 100.05 30.69C102.677 28.8967 105.333 26.3633 108.02 23.09C108.259 22.7982 108.538 22.5422 108.85 22.33C110.43 21.21 111.543 19.9267 112.19 18.48C112.29 18.2577 112.436 18.0595 112.62 17.8993C112.803 17.7391 113.019 17.6206 113.252 17.5521C113.485 17.4836 113.73 17.4668 113.969 17.5026C114.209 17.5385 114.438 17.6264 114.64 17.76L114.76 17.83C115.188 18.0928 115.516 18.4905 115.692 18.9599C115.868 19.4292 115.881 19.9432 115.73 20.42L114.5 24.32C114.494 24.3373 114.494 24.3567 114.502 24.375C114.509 24.3932 114.522 24.4091 114.54 24.42L114.76 24.57C114.867 24.6188 114.988 24.6263 115.1 24.5911C115.211 24.556 115.304 24.4806 115.36 24.38C116.487 22.3267 117.963 20.5833 119.79 19.15C120.153 18.8665 120.609 18.7296 121.067 18.7667C121.525 18.8038 121.951 19.0121 122.26 19.35C124.69 21.99 126.49 25.65 130.13 27.12C137.75 30.2 143.84 26.95 147.33 20.04C148.523 17.68 149.36 16.1733 149.84 15.52C149.87 15.482 149.91 15.4526 149.955 15.4351C150 15.4177 150.049 15.4128 150.095 15.4211C150.142 15.4295 150.185 15.4506 150.22 15.4822C150.254 15.5138 150.278 15.5546 150.29 15.6Z" fill="#FEFEFE"/>
<path d="M217.478 28.159C217.096 26.615 215.717 25.6279 214.398 25.9543C213.079 26.2807 212.32 27.7969 212.702 29.3409C213.084 30.8849 214.463 31.872 215.782 31.5456C217.101 31.2193 217.86 29.703 217.478 28.159Z" fill="#FEFEFE"/>
</g>
<defs>
<clipPath id="clip0_7_3">
<rect width="370" height="48" fill="white"/>
</clipPath>
</defs>
</svg>
