<svg width="138" height="48" viewBox="232 0 138 48" fill="none" xmlns="http://www.w3.org/2000/svg">
<path d="M363.239 2.65942C362.882 1.08682 361.527 0.0540089 360.213 0.352562C358.899 0.651115 358.123 2.16798 358.481 3.74058C358.838 5.31317 360.193 6.34599 361.507 6.04743C362.821 5.74888 363.597 4.23202 363.239 2.65942Z" fill="#FEFEFE"/>
<path d="M305.406 2.65942C305.048 1.08682 303.693 0.0540089 302.379 0.352562C301.065 0.651115 300.29 2.16798 300.647 3.74058C301.004 5.31317 302.359 6.34599 303.673 6.04743C304.987 5.74888 305.763 4.23202 305.406 2.65942Z" fill="#FEFEFE"/>
<path d="M253.67 18.47L254.26 12.76C254.268 12.685 254.255 12.6093 254.223 12.5411C254.191 12.473 254.14 12.4151 254.077 12.3737C254.014 12.3324 253.941 12.3092 253.866 12.3068C253.79 12.3044 253.716 12.3228 253.65 12.36C247.27 15.9466 242.827 20.9866 240.32 27.48C238.42 32.38 242.99 34.32 246.81 33.07C250.403 31.8966 252.533 31.0933 253.2 30.66C255.39 29.23 257.16 29.44 258.86 27.13C258.891 27.085 258.935 27.0505 258.986 27.0311C259.037 27.0117 259.093 27.0083 259.146 27.0213C259.199 27.0343 259.247 27.0631 259.284 27.104C259.32 27.1448 259.343 27.1957 259.35 27.25L259.52 28.29C259.526 28.3297 259.522 28.3706 259.508 28.409C259.494 28.4474 259.471 28.4821 259.44 28.51C258.427 29.3833 257.47 30.4966 256.57 31.85C256.384 32.1286 256.159 32.381 255.9 32.6C250.03 37.56 241.48 40.24 235.9 33.07C235.626 32.7181 235.463 32.2936 235.43 31.85C235.183 28.8433 235.29 26.8 235.75 25.72C239.04 17.96 246.28 9.44998 254.83 6.88998C255.016 6.83366 255.214 6.82151 255.406 6.85448C255.599 6.88744 255.782 6.96463 255.94 7.07998C257.113 7.93998 257.853 8.85998 258.16 9.83998C258.66 11.4266 258.53 14.0133 257.77 17.6C257.688 17.983 257.491 18.3322 257.205 18.6017C256.92 18.8712 256.559 19.0484 256.17 19.11L254.6 19.36C254.477 19.3792 254.351 19.3698 254.232 19.3325C254.114 19.2952 254.005 19.231 253.915 19.1449C253.825 19.0588 253.756 18.9531 253.714 18.8361C253.671 18.719 253.656 18.5937 253.67 18.47Z" fill="#FEFEFE"/>
<path d="M359.09 23.23C359.136 23.1422 359.147 23.0395 359.119 22.9429C359.091 22.8462 359.027 22.763 358.94 22.71L358.92 22.7C358.868 22.6708 358.806 22.6628 358.747 22.6775C358.688 22.6923 358.635 22.7289 358.6 22.78C356.907 25.3133 354.78 28.04 352.22 30.96C349.93 33.57 345.8 36.63 342.77 33.37C340.53 30.95 342.32 25 343.46 21.33C343.483 21.2519 343.484 21.1694 343.466 21.0903C343.447 21.0113 343.408 20.9385 343.352 20.8791C343.297 20.8197 343.227 20.7756 343.149 20.7512C343.072 20.7268 342.989 20.723 342.91 20.74C340.937 21.16 339.113 21.9733 337.44 23.18C337.38 23.22 333.643 26.07 326.23 31.73C324.59 32.9767 322.837 33.6067 320.97 33.62C320.633 33.621 320.299 33.5625 319.988 33.4479C319.676 33.3334 319.393 33.1651 319.156 32.9529C318.919 32.7407 318.731 32.4888 318.605 32.2119C318.479 31.935 318.416 31.6386 318.42 31.34C318.427 30.74 318.763 30.0133 319.43 29.16C321.77 26.1733 323.963 23.1967 326.01 20.23C326.079 20.1295 326.12 20.0121 326.127 19.8904C326.134 19.7686 326.108 19.6472 326.052 19.5391C325.995 19.4311 325.91 19.3405 325.806 19.2772C325.702 19.214 325.582 19.1803 325.46 19.18C319.58 19.2 313.907 20.1667 308.44 22.08C308.204 22.1652 307.949 22.1859 307.7 22.14L306.46 21.89C306.386 21.8755 306.31 21.8785 306.238 21.8988C306.166 21.919 306.099 21.9558 306.044 22.0064C305.989 22.057 305.946 22.1198 305.919 22.1899C305.892 22.26 305.882 22.3354 305.89 22.41C306.33 27.13 306.49 32.66 308.05 35.23C308.211 35.4955 308.294 35.7981 308.292 36.1088C308.291 36.4196 308.204 36.7279 308.04 37.0041C307.876 37.2804 307.641 37.5152 307.358 37.6862C307.074 37.8571 306.751 37.9583 306.42 37.98C305.593 38.0333 304.76 37.67 303.92 36.89C303.672 36.6614 303.491 36.3671 303.4 36.04C302.133 31.7533 301.437 26.9467 301.31 21.62C301.304 21.2867 301.188 20.9647 300.98 20.7042C300.772 20.4437 300.484 20.2594 300.16 20.18L300.11 20.17C299.964 20.1338 299.811 20.1312 299.663 20.1624C299.516 20.1935 299.377 20.2577 299.258 20.35C299.138 20.4424 299.042 20.5605 298.974 20.6956C298.907 20.8307 298.872 20.9792 298.87 21.13C298.83 23.2767 298.67 25.2133 298.39 26.94C297.777 30.7133 295.943 33.53 292.89 35.39C291.983 35.9433 290.653 35.94 288.9 35.38C288.593 35.2772 288.338 35.0583 288.19 34.77C286.78 31.99 288.64 30.09 290.11 28.19C290.15 28.1414 290.205 28.1069 290.266 28.0913C290.328 28.0757 290.392 28.0798 290.451 28.1031C290.51 28.1263 290.56 28.1676 290.594 28.2209C290.628 28.2742 290.644 28.3369 290.64 28.4L290.37 30.97C290.356 31.1029 290.385 31.2366 290.453 31.3519C290.52 31.4673 290.622 31.5582 290.745 31.6116C290.867 31.665 291.003 31.6781 291.134 31.6491C291.264 31.6201 291.382 31.5503 291.47 31.45C294.71 27.8 294.61 21.17 293.28 16.92C293.226 16.7457 293.126 16.5891 292.991 16.4665C292.856 16.344 292.69 16.2599 292.511 16.2231C292.333 16.1864 292.147 16.1982 291.975 16.2575C291.802 16.3167 291.648 16.4212 291.53 16.56C286.42 22.58 284.64 31.6 285.51 39.06C285.548 39.3742 285.519 39.693 285.424 39.9953C285.33 40.2975 285.172 40.5764 284.961 40.8136C284.751 41.0507 284.492 41.2408 284.202 41.3712C283.912 41.5015 283.598 41.5693 283.28 41.57H282.85C282.574 41.5693 282.302 41.5102 282.051 41.3966C281.8 41.283 281.577 41.1176 281.395 40.9114C281.213 40.7051 281.078 40.4628 280.998 40.2004C280.918 39.9381 280.894 39.6618 280.93 39.39C281.27 36.6567 281.313 33.52 281.06 29.98C280.933 28.18 280.223 26.75 278.93 25.69C278.877 25.6455 278.813 25.6172 278.745 25.6082C278.676 25.5991 278.607 25.6097 278.543 25.6388C278.48 25.6679 278.425 25.7143 278.386 25.7728C278.347 25.8313 278.324 25.8996 278.32 25.97C278.207 28.8433 277.577 31.3933 276.43 33.62C276.281 33.9123 276.037 34.1457 275.739 34.2826C275.44 34.4194 275.105 34.4517 274.786 34.3743C274.467 34.2969 274.183 34.1142 273.981 33.8558C273.778 33.5973 273.669 33.2783 273.67 32.95V26.32C273.67 26.1772 273.636 26.0364 273.572 25.9088C273.508 25.7813 273.414 25.6704 273.3 25.585C273.185 25.4996 273.053 25.4421 272.912 25.4169C272.772 25.3917 272.627 25.3996 272.49 25.44C269.657 26.2467 267.507 28.0033 266.04 30.71C265.775 31.1989 265.381 31.5909 264.934 31.8119C264.486 32.033 264.015 32.0678 263.61 31.91C263.023 31.6767 262.39 31.26 261.71 30.66C261.555 30.5264 261.439 30.3543 261.372 30.1611C261.305 29.9679 261.291 29.7606 261.33 29.56L262.17 25.34C262.192 25.2355 262.236 25.1365 262.297 25.0489C262.359 24.9612 262.438 24.8868 262.53 24.83L265.71 22.92C266.046 22.7157 266.333 22.4428 266.55 22.12C268.983 18.54 270.76 15.9567 271.88 14.37C273.85 11.59 276.35 12.89 277.12 15.65C277.453 16.83 277.593 18.2067 277.54 19.78C277.534 19.9553 277.57 20.1298 277.647 20.2883C277.724 20.4469 277.838 20.5847 277.98 20.69C278.77 21.27 279.88 21.33 280.61 21.87C281.303 22.3767 281.913 22.9267 282.44 23.52C282.495 23.5849 282.566 23.6337 282.646 23.6613C282.726 23.689 282.813 23.6943 282.896 23.6769C282.979 23.6595 283.056 23.6199 283.118 23.5623C283.18 23.5048 283.226 23.4314 283.25 23.35C284.143 20.5167 285.317 17.98 286.77 15.74C289.5 11.51 293.77 9.43 296.77 14.75C297.377 15.83 297.743 16.4667 297.87 16.66C297.948 16.7828 298.071 16.8709 298.212 16.9063C298.354 16.9416 298.503 16.9215 298.63 16.85C301.243 15.4033 303.23 15.8333 304.59 18.14C304.63 18.2078 304.684 18.2663 304.749 18.3118C304.813 18.3572 304.887 18.3885 304.964 18.4036C305.042 18.4187 305.121 18.4173 305.198 18.3994C305.275 18.3816 305.347 18.3477 305.41 18.3C306.223 17.6733 307.963 17.0433 310.63 16.41C316.48 15.03 324.13 13.43 329.66 15.71C329.947 15.8341 330.193 16.035 330.37 16.29C331.11 17.3633 331.353 18.59 331.1 19.97C331.067 20.1291 331.013 20.2775 330.94 20.41L329.5 22.9C329.465 22.9669 329.454 23.0435 329.467 23.1177C329.481 23.1919 329.518 23.2596 329.574 23.31C329.631 23.3604 329.702 23.3907 329.777 23.3961C329.852 23.4015 329.927 23.3818 329.99 23.34C334.98 19.82 338.42 16.56 344.58 16.57C345.229 16.5727 345.857 16.748 346.387 17.0745C346.918 17.4011 347.329 17.865 347.57 18.41C347.803 18.9433 347.92 20.0767 347.92 21.81C347.92 22.0944 347.869 22.3724 347.77 22.63C346.963 24.7967 346.53 27.2033 346.47 29.85C346.468 29.9216 346.486 29.9922 346.522 30.0535C346.559 30.1149 346.613 30.1646 346.678 30.197C346.742 30.2294 346.815 30.243 346.888 30.2365C346.961 30.23 347.031 30.2035 347.09 30.16C348.93 28.7267 350.81 26.9967 352.73 24.97C355.463 22.0767 358.323 19.5933 361.31 17.52C361.541 17.3588 361.81 17.2591 362.09 17.2304C362.371 17.2018 362.654 17.245 362.913 17.3561C363.172 17.4671 363.399 17.6424 363.571 17.8652C363.744 18.0881 363.857 18.3513 363.9 18.63C364.2 20.5433 363.97 22.2933 363.21 23.88C361.31 27.85 360.37 32.09 359.71 36.17C359.643 36.5899 359.445 36.9779 359.144 37.2782C358.843 37.5785 358.455 37.7755 358.035 37.8411C357.615 37.9067 357.185 37.8374 356.806 37.6431C356.428 37.4488 356.121 37.1397 355.93 36.76C354.44 33.85 357.51 26.21 359.09 23.23Z" fill="#FEFEFE"/>
</svg>
